<mxfile host="app.diagrams.net" agent="Mozilla/5.0 (Windows NT 10.0; Win64; x64) AppleWebKit/537.36 (KHTML, like Gecko) Chrome/135.0.0.0 Safari/537.36" version="26.2.13">
  <diagram name="Página-1" id="MwGWJP87P9zumKJYnPod">
    <mxGraphModel dx="874" dy="473" grid="1" gridSize="10" guides="1" tooltips="1" connect="1" arrows="1" fold="1" page="1" pageScale="1" pageWidth="827" pageHeight="1169" math="0" shadow="0">
      <root>
        <mxCell id="0" />
        <mxCell id="1" parent="0" />
        <mxCell id="_1qr9PyPMLD9ZtLmiUYb-10" value="" style="edgeStyle=orthogonalEdgeStyle;rounded=0;orthogonalLoop=1;jettySize=auto;html=1;" edge="1" parent="1" target="_1qr9PyPMLD9ZtLmiUYb-9">
          <mxGeometry relative="1" as="geometry">
            <mxPoint x="165" y="150" as="sourcePoint" />
          </mxGeometry>
        </mxCell>
        <mxCell id="_1qr9PyPMLD9ZtLmiUYb-1" value="Usuario/Paciente(Cliente)" style="shape=umlActor;verticalLabelPosition=bottom;verticalAlign=top;html=1;outlineConnect=0;" vertex="1" parent="1">
          <mxGeometry x="150" y="60" width="30" height="60" as="geometry" />
        </mxCell>
        <mxCell id="_1qr9PyPMLD9ZtLmiUYb-42" value="" style="edgeStyle=orthogonalEdgeStyle;rounded=0;orthogonalLoop=1;jettySize=auto;html=1;" edge="1" parent="1" target="_1qr9PyPMLD9ZtLmiUYb-41">
          <mxGeometry relative="1" as="geometry">
            <mxPoint x="435" y="150" as="sourcePoint" />
          </mxGeometry>
        </mxCell>
        <mxCell id="_1qr9PyPMLD9ZtLmiUYb-2" value="Administrador da clínica(Recepcionista)" style="shape=umlActor;verticalLabelPosition=bottom;verticalAlign=top;html=1;outlineConnect=0;" vertex="1" parent="1">
          <mxGeometry x="420" y="60" width="30" height="60" as="geometry" />
        </mxCell>
        <mxCell id="_1qr9PyPMLD9ZtLmiUYb-64" value="" style="edgeStyle=orthogonalEdgeStyle;rounded=0;orthogonalLoop=1;jettySize=auto;html=1;" edge="1" parent="1" target="_1qr9PyPMLD9ZtLmiUYb-63">
          <mxGeometry relative="1" as="geometry">
            <mxPoint x="695" y="150" as="sourcePoint" />
          </mxGeometry>
        </mxCell>
        <mxCell id="_1qr9PyPMLD9ZtLmiUYb-7" value="Médico(Dermatologista)" style="shape=umlActor;verticalLabelPosition=bottom;verticalAlign=top;html=1;outlineConnect=0;" vertex="1" parent="1">
          <mxGeometry x="680" y="60" width="30" height="60" as="geometry" />
        </mxCell>
        <mxCell id="_1qr9PyPMLD9ZtLmiUYb-12" value="" style="edgeStyle=orthogonalEdgeStyle;rounded=0;orthogonalLoop=1;jettySize=auto;html=1;" edge="1" parent="1" source="_1qr9PyPMLD9ZtLmiUYb-9" target="_1qr9PyPMLD9ZtLmiUYb-11">
          <mxGeometry relative="1" as="geometry" />
        </mxCell>
        <mxCell id="_1qr9PyPMLD9ZtLmiUYb-9" value="Cadastro com nome, e-mail, telefone e senha" style="whiteSpace=wrap;html=1;verticalAlign=top;" vertex="1" parent="1">
          <mxGeometry x="105" y="200" width="120" height="60" as="geometry" />
        </mxCell>
        <mxCell id="_1qr9PyPMLD9ZtLmiUYb-14" value="" style="edgeStyle=orthogonalEdgeStyle;rounded=0;orthogonalLoop=1;jettySize=auto;html=1;" edge="1" parent="1" source="_1qr9PyPMLD9ZtLmiUYb-11" target="_1qr9PyPMLD9ZtLmiUYb-13">
          <mxGeometry relative="1" as="geometry" />
        </mxCell>
        <mxCell id="_1qr9PyPMLD9ZtLmiUYb-23" value="&amp;lt;&amp;lt;extend&amp;gt;&amp;gt;" style="edgeLabel;html=1;align=center;verticalAlign=middle;resizable=0;points=[];" vertex="1" connectable="0" parent="_1qr9PyPMLD9ZtLmiUYb-14">
          <mxGeometry x="-0.6296" relative="1" as="geometry">
            <mxPoint as="offset" />
          </mxGeometry>
        </mxCell>
        <mxCell id="_1qr9PyPMLD9ZtLmiUYb-11" value="Login com autenticação" style="whiteSpace=wrap;html=1;verticalAlign=top;" vertex="1" parent="1">
          <mxGeometry x="105" y="280" width="120" height="60" as="geometry" />
        </mxCell>
        <mxCell id="_1qr9PyPMLD9ZtLmiUYb-27" value="" style="edgeStyle=orthogonalEdgeStyle;rounded=0;orthogonalLoop=1;jettySize=auto;html=1;" edge="1" parent="1" source="_1qr9PyPMLD9ZtLmiUYb-13" target="_1qr9PyPMLD9ZtLmiUYb-26">
          <mxGeometry relative="1" as="geometry" />
        </mxCell>
        <mxCell id="_1qr9PyPMLD9ZtLmiUYb-13" value="Recuperação de senha" style="whiteSpace=wrap;html=1;verticalAlign=top;" vertex="1" parent="1">
          <mxGeometry x="105" y="390" width="120" height="60" as="geometry" />
        </mxCell>
        <mxCell id="_1qr9PyPMLD9ZtLmiUYb-18" value="" style="edgeStyle=orthogonalEdgeStyle;rounded=0;orthogonalLoop=1;jettySize=auto;html=1;exitX=0.5;exitY=1;exitDx=0;exitDy=0;" edge="1" parent="1" source="_1qr9PyPMLD9ZtLmiUYb-11" target="_1qr9PyPMLD9ZtLmiUYb-11">
          <mxGeometry relative="1" as="geometry">
            <mxPoint x="240" y="370" as="sourcePoint" />
          </mxGeometry>
        </mxCell>
        <mxCell id="_1qr9PyPMLD9ZtLmiUYb-29" value="" style="edgeStyle=orthogonalEdgeStyle;rounded=0;orthogonalLoop=1;jettySize=auto;html=1;" edge="1" parent="1" source="_1qr9PyPMLD9ZtLmiUYb-26" target="_1qr9PyPMLD9ZtLmiUYb-28">
          <mxGeometry relative="1" as="geometry" />
        </mxCell>
        <mxCell id="_1qr9PyPMLD9ZtLmiUYb-30" value="&amp;lt;&amp;lt;include&amp;gt;&amp;gt;" style="edgeLabel;html=1;align=center;verticalAlign=middle;resizable=0;points=[];" vertex="1" connectable="0" parent="_1qr9PyPMLD9ZtLmiUYb-29">
          <mxGeometry x="-0.075" relative="1" as="geometry">
            <mxPoint as="offset" />
          </mxGeometry>
        </mxCell>
        <mxCell id="_1qr9PyPMLD9ZtLmiUYb-26" value="Agendamento de consulta" style="whiteSpace=wrap;html=1;verticalAlign=top;" vertex="1" parent="1">
          <mxGeometry x="105" y="480" width="120" height="60" as="geometry" />
        </mxCell>
        <mxCell id="_1qr9PyPMLD9ZtLmiUYb-32" value="" style="edgeStyle=orthogonalEdgeStyle;rounded=0;orthogonalLoop=1;jettySize=auto;html=1;" edge="1" parent="1" source="_1qr9PyPMLD9ZtLmiUYb-28" target="_1qr9PyPMLD9ZtLmiUYb-31">
          <mxGeometry relative="1" as="geometry" />
        </mxCell>
        <mxCell id="_1qr9PyPMLD9ZtLmiUYb-33" value="&amp;lt;&amp;lt;include&amp;gt;&amp;gt;" style="edgeLabel;html=1;align=center;verticalAlign=middle;resizable=0;points=[];" vertex="1" connectable="0" parent="_1qr9PyPMLD9ZtLmiUYb-32">
          <mxGeometry x="-0.12" y="1" relative="1" as="geometry">
            <mxPoint as="offset" />
          </mxGeometry>
        </mxCell>
        <mxCell id="_1qr9PyPMLD9ZtLmiUYb-28" value="Escolha de data, horário e tipo de atendimento" style="whiteSpace=wrap;html=1;verticalAlign=top;" vertex="1" parent="1">
          <mxGeometry x="105" y="580" width="120" height="60" as="geometry" />
        </mxCell>
        <mxCell id="_1qr9PyPMLD9ZtLmiUYb-35" value="" style="edgeStyle=orthogonalEdgeStyle;rounded=0;orthogonalLoop=1;jettySize=auto;html=1;" edge="1" parent="1" source="_1qr9PyPMLD9ZtLmiUYb-31" target="_1qr9PyPMLD9ZtLmiUYb-34">
          <mxGeometry relative="1" as="geometry" />
        </mxCell>
        <mxCell id="_1qr9PyPMLD9ZtLmiUYb-31" value="Acompanhamento de agendamento" style="whiteSpace=wrap;html=1;verticalAlign=top;" vertex="1" parent="1">
          <mxGeometry x="105" y="690" width="120" height="60" as="geometry" />
        </mxCell>
        <mxCell id="_1qr9PyPMLD9ZtLmiUYb-37" value="" style="edgeStyle=orthogonalEdgeStyle;rounded=0;orthogonalLoop=1;jettySize=auto;html=1;" edge="1" parent="1" source="_1qr9PyPMLD9ZtLmiUYb-34" target="_1qr9PyPMLD9ZtLmiUYb-36">
          <mxGeometry relative="1" as="geometry" />
        </mxCell>
        <mxCell id="_1qr9PyPMLD9ZtLmiUYb-38" value="&amp;lt;&amp;lt;include&amp;gt;&amp;gt;" style="edgeLabel;html=1;align=center;verticalAlign=middle;resizable=0;points=[];" vertex="1" connectable="0" parent="_1qr9PyPMLD9ZtLmiUYb-37">
          <mxGeometry x="0.025" relative="1" as="geometry">
            <mxPoint as="offset" />
          </mxGeometry>
        </mxCell>
        <mxCell id="_1qr9PyPMLD9ZtLmiUYb-34" value="Status: Agendada,confirmada, em atendimento, finalizada" style="whiteSpace=wrap;html=1;verticalAlign=top;" vertex="1" parent="1">
          <mxGeometry x="105" y="800" width="120" height="60" as="geometry" />
        </mxCell>
        <mxCell id="_1qr9PyPMLD9ZtLmiUYb-40" value="" style="edgeStyle=orthogonalEdgeStyle;rounded=0;orthogonalLoop=1;jettySize=auto;html=1;" edge="1" parent="1" source="_1qr9PyPMLD9ZtLmiUYb-36" target="_1qr9PyPMLD9ZtLmiUYb-39">
          <mxGeometry relative="1" as="geometry" />
        </mxCell>
        <mxCell id="_1qr9PyPMLD9ZtLmiUYb-36" value="Perfil do usuario" style="whiteSpace=wrap;html=1;verticalAlign=top;" vertex="1" parent="1">
          <mxGeometry x="105" y="900" width="120" height="50" as="geometry" />
        </mxCell>
        <mxCell id="_1qr9PyPMLD9ZtLmiUYb-39" value="Suporte e contato com a clínica" style="whiteSpace=wrap;html=1;verticalAlign=top;" vertex="1" parent="1">
          <mxGeometry x="105" y="990" width="120" height="60" as="geometry" />
        </mxCell>
        <mxCell id="_1qr9PyPMLD9ZtLmiUYb-44" value="" style="edgeStyle=orthogonalEdgeStyle;rounded=0;orthogonalLoop=1;jettySize=auto;html=1;" edge="1" parent="1" source="_1qr9PyPMLD9ZtLmiUYb-41" target="_1qr9PyPMLD9ZtLmiUYb-43">
          <mxGeometry relative="1" as="geometry" />
        </mxCell>
        <mxCell id="_1qr9PyPMLD9ZtLmiUYb-45" value="&amp;lt;&amp;lt;extend&amp;gt;&amp;gt;" style="edgeLabel;html=1;align=center;verticalAlign=middle;resizable=0;points=[];" vertex="1" connectable="0" parent="_1qr9PyPMLD9ZtLmiUYb-44">
          <mxGeometry x="0.2" y="1" relative="1" as="geometry">
            <mxPoint as="offset" />
          </mxGeometry>
        </mxCell>
        <mxCell id="_1qr9PyPMLD9ZtLmiUYb-41" value="Visualizar todos os agendamentos feitos pelos clientes" style="whiteSpace=wrap;html=1;verticalAlign=top;" vertex="1" parent="1">
          <mxGeometry x="375" y="200" width="120" height="60" as="geometry" />
        </mxCell>
        <mxCell id="_1qr9PyPMLD9ZtLmiUYb-47" value="" style="edgeStyle=orthogonalEdgeStyle;rounded=0;orthogonalLoop=1;jettySize=auto;html=1;" edge="1" parent="1" source="_1qr9PyPMLD9ZtLmiUYb-43" target="_1qr9PyPMLD9ZtLmiUYb-46">
          <mxGeometry relative="1" as="geometry" />
        </mxCell>
        <mxCell id="_1qr9PyPMLD9ZtLmiUYb-43" value="Confirmar, remarcar ou cancelar consultas" style="whiteSpace=wrap;html=1;verticalAlign=top;" vertex="1" parent="1">
          <mxGeometry x="375" y="290" width="120" height="60" as="geometry" />
        </mxCell>
        <mxCell id="_1qr9PyPMLD9ZtLmiUYb-49" value="" style="edgeStyle=orthogonalEdgeStyle;rounded=0;orthogonalLoop=1;jettySize=auto;html=1;" edge="1" parent="1" source="_1qr9PyPMLD9ZtLmiUYb-46" target="_1qr9PyPMLD9ZtLmiUYb-48">
          <mxGeometry relative="1" as="geometry" />
        </mxCell>
        <mxCell id="_1qr9PyPMLD9ZtLmiUYb-46" value="Acesso a dados do cliente registrado" style="whiteSpace=wrap;html=1;verticalAlign=top;" vertex="1" parent="1">
          <mxGeometry x="375" y="390" width="120" height="60" as="geometry" />
        </mxCell>
        <mxCell id="_1qr9PyPMLD9ZtLmiUYb-51" value="" style="edgeStyle=orthogonalEdgeStyle;rounded=0;orthogonalLoop=1;jettySize=auto;html=1;" edge="1" parent="1" source="_1qr9PyPMLD9ZtLmiUYb-48" target="_1qr9PyPMLD9ZtLmiUYb-50">
          <mxGeometry relative="1" as="geometry" />
        </mxCell>
        <mxCell id="_1qr9PyPMLD9ZtLmiUYb-48" value="Notificar aos usuários sobre consultas próximas" style="whiteSpace=wrap;html=1;verticalAlign=top;" vertex="1" parent="1">
          <mxGeometry x="375" y="490" width="120" height="60" as="geometry" />
        </mxCell>
        <mxCell id="_1qr9PyPMLD9ZtLmiUYb-56" value="" style="edgeStyle=orthogonalEdgeStyle;rounded=0;orthogonalLoop=1;jettySize=auto;html=1;" edge="1" parent="1" source="_1qr9PyPMLD9ZtLmiUYb-50" target="_1qr9PyPMLD9ZtLmiUYb-55">
          <mxGeometry relative="1" as="geometry" />
        </mxCell>
        <mxCell id="_1qr9PyPMLD9ZtLmiUYb-57" value="&amp;lt;&amp;lt;include&amp;gt;&amp;gt;" style="edgeLabel;html=1;align=center;verticalAlign=middle;resizable=0;points=[];" vertex="1" connectable="0" parent="_1qr9PyPMLD9ZtLmiUYb-56">
          <mxGeometry x="-0.36" y="1" relative="1" as="geometry">
            <mxPoint as="offset" />
          </mxGeometry>
        </mxCell>
        <mxCell id="_1qr9PyPMLD9ZtLmiUYb-50" value="Painel de estatísticas e relatórios" style="whiteSpace=wrap;html=1;verticalAlign=top;" vertex="1" parent="1">
          <mxGeometry x="375" y="580" width="120" height="60" as="geometry" />
        </mxCell>
        <mxCell id="_1qr9PyPMLD9ZtLmiUYb-59" value="" style="edgeStyle=orthogonalEdgeStyle;rounded=0;orthogonalLoop=1;jettySize=auto;html=1;" edge="1" parent="1" source="_1qr9PyPMLD9ZtLmiUYb-55" target="_1qr9PyPMLD9ZtLmiUYb-58">
          <mxGeometry relative="1" as="geometry" />
        </mxCell>
        <mxCell id="_1qr9PyPMLD9ZtLmiUYb-55" value="Exportar relatórios de consultas como PDF" style="whiteSpace=wrap;html=1;verticalAlign=top;" vertex="1" parent="1">
          <mxGeometry x="375" y="690" width="120" height="60" as="geometry" />
        </mxCell>
        <mxCell id="_1qr9PyPMLD9ZtLmiUYb-61" value="" style="edgeStyle=orthogonalEdgeStyle;rounded=0;orthogonalLoop=1;jettySize=auto;html=1;" edge="1" parent="1" source="_1qr9PyPMLD9ZtLmiUYb-58" target="_1qr9PyPMLD9ZtLmiUYb-60">
          <mxGeometry relative="1" as="geometry" />
        </mxCell>
        <mxCell id="_1qr9PyPMLD9ZtLmiUYb-62" value="&amp;lt;&amp;lt;include&amp;gt;&amp;gt;" style="edgeLabel;html=1;align=center;verticalAlign=middle;resizable=0;points=[];" vertex="1" connectable="0" parent="_1qr9PyPMLD9ZtLmiUYb-61">
          <mxGeometry x="0.1556" y="-3" relative="1" as="geometry">
            <mxPoint as="offset" />
          </mxGeometry>
        </mxCell>
        <mxCell id="_1qr9PyPMLD9ZtLmiUYb-58" value="Gerenciamento de usuários internos" style="whiteSpace=wrap;html=1;verticalAlign=top;" vertex="1" parent="1">
          <mxGeometry x="375" y="790" width="120" height="60" as="geometry" />
        </mxCell>
        <mxCell id="_1qr9PyPMLD9ZtLmiUYb-60" value="Definir permissões de acesso" style="whiteSpace=wrap;html=1;verticalAlign=top;" vertex="1" parent="1">
          <mxGeometry x="375" y="895" width="120" height="60" as="geometry" />
        </mxCell>
        <mxCell id="_1qr9PyPMLD9ZtLmiUYb-66" value="" style="edgeStyle=orthogonalEdgeStyle;rounded=0;orthogonalLoop=1;jettySize=auto;html=1;" edge="1" parent="1" source="_1qr9PyPMLD9ZtLmiUYb-63" target="_1qr9PyPMLD9ZtLmiUYb-65">
          <mxGeometry relative="1" as="geometry" />
        </mxCell>
        <mxCell id="_1qr9PyPMLD9ZtLmiUYb-67" value="&amp;lt;&amp;lt;include&amp;gt;&amp;gt;" style="edgeLabel;html=1;align=center;verticalAlign=middle;resizable=0;points=[];" vertex="1" connectable="0" parent="_1qr9PyPMLD9ZtLmiUYb-66">
          <mxGeometry x="-0.12" y="-2" relative="1" as="geometry">
            <mxPoint as="offset" />
          </mxGeometry>
        </mxCell>
        <mxCell id="_1qr9PyPMLD9ZtLmiUYb-63" value="Visualizar agenda" style="whiteSpace=wrap;html=1;verticalAlign=top;" vertex="1" parent="1">
          <mxGeometry x="635" y="200" width="120" height="60" as="geometry" />
        </mxCell>
        <mxCell id="_1qr9PyPMLD9ZtLmiUYb-69" value="" style="edgeStyle=orthogonalEdgeStyle;rounded=0;orthogonalLoop=1;jettySize=auto;html=1;" edge="1" parent="1" source="_1qr9PyPMLD9ZtLmiUYb-65" target="_1qr9PyPMLD9ZtLmiUYb-68">
          <mxGeometry relative="1" as="geometry" />
        </mxCell>
        <mxCell id="_1qr9PyPMLD9ZtLmiUYb-65" value="Visualizar todos os agendamentos feitos pelos clientes" style="whiteSpace=wrap;html=1;verticalAlign=top;" vertex="1" parent="1">
          <mxGeometry x="635" y="310" width="120" height="60" as="geometry" />
        </mxCell>
        <mxCell id="_1qr9PyPMLD9ZtLmiUYb-72" value="" style="edgeStyle=orthogonalEdgeStyle;rounded=0;orthogonalLoop=1;jettySize=auto;html=1;" edge="1" parent="1" source="_1qr9PyPMLD9ZtLmiUYb-68" target="_1qr9PyPMLD9ZtLmiUYb-71">
          <mxGeometry relative="1" as="geometry" />
        </mxCell>
        <mxCell id="_1qr9PyPMLD9ZtLmiUYb-68" value="Visualizar consultas de pacientes&amp;nbsp;" style="whiteSpace=wrap;html=1;verticalAlign=top;" vertex="1" parent="1">
          <mxGeometry x="635" y="410" width="120" height="60" as="geometry" />
        </mxCell>
        <mxCell id="_1qr9PyPMLD9ZtLmiUYb-74" value="" style="edgeStyle=orthogonalEdgeStyle;rounded=0;orthogonalLoop=1;jettySize=auto;html=1;" edge="1" parent="1" source="_1qr9PyPMLD9ZtLmiUYb-71" target="_1qr9PyPMLD9ZtLmiUYb-73">
          <mxGeometry relative="1" as="geometry" />
        </mxCell>
        <mxCell id="_1qr9PyPMLD9ZtLmiUYb-75" value="&amp;lt;&amp;lt;extend&amp;gt;&amp;gt;" style="edgeLabel;html=1;align=center;verticalAlign=middle;resizable=0;points=[];" vertex="1" connectable="0" parent="_1qr9PyPMLD9ZtLmiUYb-74">
          <mxGeometry x="-0.05" y="1" relative="1" as="geometry">
            <mxPoint as="offset" />
          </mxGeometry>
        </mxCell>
        <mxCell id="_1qr9PyPMLD9ZtLmiUYb-71" value="Acesso ao histórico de consultas e dados dos clientes" style="whiteSpace=wrap;html=1;verticalAlign=top;" vertex="1" parent="1">
          <mxGeometry x="635" y="510" width="120" height="60" as="geometry" />
        </mxCell>
        <mxCell id="_1qr9PyPMLD9ZtLmiUYb-73" value="Troca de data e horário de acordo com a disponibilidade do médico" style="whiteSpace=wrap;html=1;verticalAlign=top;" vertex="1" parent="1">
          <mxGeometry x="635" y="610" width="120" height="60" as="geometry" />
        </mxCell>
      </root>
    </mxGraphModel>
  </diagram>
</mxfile>
